<svg id="Qantas_Assure" data-name="Qantas Assure" xmlns="http://www.w3.org/2000/svg" viewBox="0 0 249.5 70.87"><defs><style>.cls-1{fill:#e40000;}.cls-2{fill:#323232;}</style></defs><title>Artboard 1</title><path class="cls-1" d="M0,15.45C0,6.29,5.46.56,13.88,0V6.38C9.53,6.85,7,10.55,7,15.27v32.1c0,4.72,2.5,8.42,6.85,8.88v6.38C5.46,62.08,0,56.34,0,47.18ZM21.65,70.87l-5.46-8.23V56.25c4.35-.55,6.85-4.16,6.85-8.88V15.27c0-4.72-2.5-8.33-6.85-8.88V0c8.42.56,13.88,6.38,13.88,15.45V47.18c0,6.38-2.68,11.19-7.22,13.6L29.6,70.87Z"/><path class="cls-2" d="M140.09,27.27v-.63a4.87,4.87,0,0,0-5.23-5c-3.2,0-5.26,2.12-5.26,4.75s1.63,3.95,3.75,4.95l2.12,1c1.57.74,2.89,1.37,2.89,3.55a3.25,3.25,0,0,1-3.52,3.29c-2.23,0-3.49-1.34-3.49-3.06v-.86h-2.12V36c0,3,2.37,5,5.63,5,3.46,0,5.58-2.23,5.58-5.35s-2.2-4.35-4.32-5.35l-2.12-1c-1.32-.63-2.35-1.26-2.35-3.06a2.85,2.85,0,0,1,3.15-2.77A3,3,0,0,1,138,26.53v.74ZM122.87,40.71h2.26L119.7,21.92h-2.23l-5.38,18.79h2.14l1.14-4.32h6.32Zm-1.72-6.21h-5.23l2.6-9.67ZM98.53,23.87h4.4V40.71h2.17V23.87h4.43V21.92h-11Zm-5.46-1.94h-2V36l-7-14H82.12V40.71h2V26.44l7.15,14.27h1.8ZM74.31,40.71h2.26L71.14,21.92H68.9L63.53,40.71h2.14l1.14-4.32h6.32Zm-1.72-6.21H67.36L70,24.84ZM49.43,27.44c0-2.2,1.29-3.86,3.49-3.86s3.49,1.66,3.49,3.86v7.75c0,2.2-1.26,3.86-3.49,3.86s-3.49-1.66-3.49-3.86Zm8.89,16.79-2.46-3.92a5.57,5.57,0,0,0,2.72-5.18V27.5c0-3.6-2.32-5.86-5.66-5.86s-5.66,2.26-5.66,5.86v7.64c0,3.6,2.29,5.86,5.66,5.86a3.62,3.62,0,0,0,.8-.09l2,3.32ZM162.88,36.4h-6.32l-1.14,4.32h-2.14l5.38-18.79h2.23l5.43,18.79h-2.26Zm-3.17-11.55-2.6,9.67h5.23Zm19.5,2.43v-.74A3,3,0,0,0,176,23.47a2.85,2.85,0,0,0-3.15,2.78c0,1.8,1,2.43,2.34,3.06l2.12,1c2.12,1,4.32,2.09,4.32,5.35S179.5,41,176,41c-3.26,0-5.63-2-5.63-5v-.75h2.12v.86c0,1.72,1.26,3.06,3.49,3.06a3.25,3.25,0,0,0,3.52-3.29c0-2.17-1.31-2.8-2.89-3.54l-2.12-1c-2.12-1-3.75-2.32-3.75-4.95s2.06-4.75,5.26-4.75a4.87,4.87,0,0,1,5.23,5v.63Zm16.47,0v-.74a3,3,0,0,0-3.23-3.06,2.85,2.85,0,0,0-3.15,2.78c0,1.8,1,2.43,2.34,3.06l2.12,1c2.12,1,4.32,2.09,4.32,5.35S196,41,192.51,41c-3.26,0-5.63-2-5.63-5v-.75H189v.86c0,1.72,1.26,3.06,3.49,3.06A3.25,3.25,0,0,0,196,35.88c0-2.17-1.32-2.8-2.89-3.54l-2.12-1c-2.12-1-3.75-2.32-3.75-4.95s2.06-4.75,5.26-4.75a4.87,4.87,0,0,1,5.23,5v.63Zm19.53-5.35V35.14c0,3.6-2.26,5.86-5.52,5.86s-5.55-2.26-5.55-5.86V21.92h2.17V35.19c0,2.2,1.23,3.86,3.37,3.86S213,37.39,213,35.19V21.92Zm6.95,18.79V21.92h4.89c3.6,0,6.21,2.2,6.21,5.6a5.43,5.43,0,0,1-3.12,5.23l3.09,7.95h-2.37L228,33.25a8.37,8.37,0,0,1-1,.06h-2.66v7.41Zm2.17-16.87v7.58h2.6A3.73,3.73,0,0,0,231,27.53c0-2.23-1.57-3.69-4.09-3.69Zm17.33,8.24v6.69h7.84v1.94h-10V21.92h9.78v1.94h-7.61v6.29h7v1.92Z"/></svg>